HIERARCHY
ROOT Hips
{
	OFFSET 0.00000 0.00000 0.00000
	CHANNELS 6 Xposition Yposition Zposition Zrotation Yrotation Xrotation 
	JOINT LHipJoint
	{
		OFFSET 0 0 0
		CHANNELS 3 Zrotation Yrotation Xrotation
		JOINT LeftUpLeg
		{
			OFFSET 1.56857 -1.73443 1.15205
			CHANNELS 3 Zrotation Yrotation Xrotation
			JOINT LeftLeg
			{
				OFFSET 2.39362 -6.57643 0.00000
				CHANNELS 3 Zrotation Yrotation Xrotation
				JOINT LeftFoot
				{
					OFFSET 2.50952 -6.89485 0.00000
					CHANNELS 3 Zrotation Yrotation Xrotation
					JOINT LeftToeBase
					{
						OFFSET 0.17171 -0.47178 1.88682
						CHANNELS 3 Zrotation Yrotation Xrotation
						End Site
						{
							OFFSET 0.00000 -0.00000 0.98146
						}
					}
				}
			}
		}
	}
	JOINT RHipJoint
	{
		OFFSET 0 0 0
		CHANNELS 3 Zrotation Yrotation Xrotation
		JOINT RightUpLeg
		{
			OFFSET -1.28153 -1.73443 1.15205
			CHANNELS 3 Zrotation Yrotation Xrotation
			JOINT RightLeg
			{
				OFFSET -2.26861 -6.23296 0.00000
				CHANNELS 3 Zrotation Yrotation Xrotation
				JOINT RightFoot
				{
					OFFSET -2.54143 -6.98254 0.00000
					CHANNELS 3 Zrotation Yrotation Xrotation
					JOINT RightToeBase
					{
						OFFSET -0.23309 -0.64041 1.93119
						CHANNELS 3 Zrotation Yrotation Xrotation
						End Site
						{
							OFFSET -0.00000 -0.00000 1.02013
						}
					}
				}
			}
		}
	}
	JOINT LowerBack
	{
		OFFSET 0 0 0
		CHANNELS 3 Zrotation Yrotation Xrotation
		JOINT Spine
		{
			OFFSET -0.07096 2.10460 -0.27878
			CHANNELS 3 Zrotation Yrotation Xrotation
			JOINT Spine1
			{
				OFFSET -0.00826 2.13662 -0.08279
				CHANNELS 3 Zrotation Yrotation Xrotation
				JOINT Neck
				{
					OFFSET 0 0 0
					CHANNELS 3 Zrotation Yrotation Xrotation
					JOINT Neck1
					{
						OFFSET 0.03239 1.77799 0.24435
						CHANNELS 3 Zrotation Yrotation Xrotation
						JOINT Head
						{
							OFFSET 0.01026 1.74194 -0.49664
							CHANNELS 3 Zrotation Yrotation Xrotation
							End Site
							{
								OFFSET 0.00170 1.83057 -0.19653
							}
						}
					}
				}
				JOINT LeftShoulder
				{
					OFFSET 0 0 0
					CHANNELS 3 Zrotation Yrotation Xrotation
					JOINT LeftArm
					{
						OFFSET 3.19178 1.35907 -0.31412
						CHANNELS 3 Zrotation Yrotation Xrotation
						JOINT LeftForeArm
						{
							OFFSET 4.85247 -0.00000 -0.00000
							CHANNELS 3 Zrotation Yrotation Xrotation
							JOINT LeftHand
							{
								OFFSET 3.55584 -0.00000 0.00000
								CHANNELS 3 Zrotation Yrotation Xrotation
								JOINT LeftFingerBase
								{
									OFFSET 0 0 0
									CHANNELS 3 Zrotation Yrotation Xrotation
									JOINT LeftHandIndex1
									{
										OFFSET 0.69320 -0.00000 0.00000
										CHANNELS 3 Zrotation Yrotation Xrotation
										End Site
										{
											OFFSET 0.55888 -0.00000 0.00000
										}
									}
								}
								JOINT LThumb
								{
									OFFSET 0 0 0
									CHANNELS 3 Zrotation Yrotation Xrotation
									End Site
									{
										OFFSET 0.56741 -0.00000 0.56741
									}
								}
							}
						}
					}
				}
				JOINT RightShoulder
				{
					OFFSET 0 0 0
					CHANNELS 3 Zrotation Yrotation Xrotation
					JOINT RightArm
					{
						OFFSET -3.28999 1.24191 -0.26899
						CHANNELS 3 Zrotation Yrotation Xrotation
						JOINT RightForeArm
						{
							OFFSET -4.64462 -0.00000 0.00000
							CHANNELS 3 Zrotation Yrotation Xrotation
							JOINT RightHand
							{
								OFFSET -3.40703 -0.00000 0.00000
								CHANNELS 3 Zrotation Yrotation Xrotation
								JOINT RightFingerBase
								{
									OFFSET 0 0 0
									CHANNELS 3 Zrotation Yrotation Xrotation
									JOINT RightHandIndex1
									{
										OFFSET -0.61958 -0.00000 0.00000
										CHANNELS 3 Zrotation Yrotation Xrotation
										End Site
										{
											OFFSET -0.49952 -0.00000 0.00000
										}
									}
								}
								JOINT RThumb
								{
									OFFSET 0 0 0
									CHANNELS 3 Zrotation Yrotation Xrotation
									End Site
									{
										OFFSET -0.50715 -0.00000 0.50715
									}
								}
							}
						}
					}
				}
			}
		}
	}
}
MOTION
Frames: 16
Frame Time: .0083333
47.9823 16.6325 5.5147 542.0400 0.5277 536.5820 0.0000 0.0000 0.0000 -17.0512 3.6343 8.1495 7.4342 15.6869 50.4979 0.0999 -3.1106 7.9460 0.4450 4.2799 11.8655 0.0000 0.0000 0.0000 23.5389 3.6045 -8.0294 -1.3773 -7.4264 20.9850 -0.7093 1.7135 -15.4196 -0.3127 -3.5951 9.9402 0.0610 0.3141 9.8994 1.6658 0.8007 3.4711 1.5924 0.5348 -1.9669 4.8065 2.8576 -23.1846 -0.9941 1.7473 27.9512 -0.9571 0.8480 13.3600 0.0000 0.0000 0.0000 -83.3655 11.2305 42.0622 12.1150 -19.9768 -2.1414 -0.0000 -0.0000 15.0256 0.1396 -15.2263 -0.0367 -7.1250 0.0000 -0.0000 -18.3646 15.2380 13.6212 0.0000 0.0000 0.0000 84.6128 -3.6525 26.8164 -16.8189 26.6184 -4.0059 0.0000 0.0000 9.0347 -13.2181 -31.0651 6.9106 7.1250 -0.0000 -0.0000 21.3841 -60.4426 -8.2741
48.0124 16.6584 5.3804 542.4160 0.4896 536.5510 0.0000 0.0000 0.0000 -16.3872 3.4455 6.4877 7.9347 16.0710 52.3271 0.0720 -2.6715 6.7757 0.5470 4.7381 13.1631 0.0000 0.0000 0.0000 24.0252 2.9183 -7.2211 -1.2864 -7.1870 20.2705 -0.7278 2.0639 -15.5472 -0.2772 -3.3865 9.3568 0.5288 0.3723 9.9634 1.7283 0.9297 3.4403 1.3780 0.6021 -2.0324 4.9352 2.7448 -23.3996 -1.0060 1.5286 28.0173 -1.0223 0.7674 13.4266 0.0000 0.0000 0.0000 -86.9177 8.4325 17.9919 8.2115 -13.8950 -1.0023 -0.0000 -0.0000 40.0688 0.1752 -20.7480 -0.0621 -7.1250 0.0000 -0.0000 -17.9599 9.9897 15.3677 0.0000 0.0000 0.0000 84.4720 -3.0506 27.2923 -17.1243 27.0213 -4.1436 0.0000 0.0000 8.5315 -13.0571 -30.9557 6.8028 7.1250 -0.0000 -0.0000 21.4656 -60.3036 -8.2359
48.0358 16.6844 5.2448 542.6760 0.5156 536.4890 0.0000 0.0000 0.0000 -15.8804 3.3947 4.8426 8.3745 16.3879 53.9007 0.0482 -2.2042 5.5622 0.4368 4.2409 11.7554 0.0000 0.0000 0.0000 24.3686 2.2151 -6.3368 -1.1917 -6.9272 19.4997 -0.7373 2.3737 -15.5896 -0.1924 -2.8248 7.7913 0.7899 0.4178 9.9829 1.8651 1.0288 3.4619 1.3610 0.6559 -2.0215 4.7452 2.6406 -23.2286 -0.8629 1.4338 27.7833 -0.9492 0.7293 13.2863 -0.0000 -0.0000 0.0000 -86.9478 8.7322 15.5892 7.9169 -13.4181 -0.9328 -0.0000 -0.0000 43.6551 -0.8720 -21.2526 0.3161 -7.1250 0.0000 -0.0000 -18.5710 9.5583 16.1238 -0.0000 -0.0000 0.0000 84.0693 -2.3606 27.9980 -17.4430 27.4381 -4.2895 0.0000 0.0000 7.9316 -12.8891 -30.8655 6.6956 7.1250 -0.0000 -0.0000 21.5698 -60.1809 -8.2147
48.0599 16.7120 5.1098 542.9650 0.6158 536.4380 0.0000 0.0000 0.0000 -15.3772 3.3963 3.2470 8.7691 16.6568 55.2882 0.0281 -1.7742 4.3310 0.2975 3.5075 9.6949 0.0000 0.0000 0.0000 24.7200 1.4732 -5.5399 -1.1102 -6.6943 18.8129 -0.7469 2.8395 -15.6119 -0.1374 -2.3889 6.5818 1.0052 0.4921 9.9626 2.0337 1.1646 3.5136 1.3994 0.7294 -1.9589 4.4443 2.5615 -22.8494 -0.8664 1.4557 27.6407 -0.8975 0.7025 13.1451 0.0000 0.0000 0.0000 -87.5424 8.6930 9.2258 7.5957 -12.8954 -0.8596 -0.0000 -0.0000 50.8996 -1.7056 -21.4139 0.6229 -7.1250 0.0000 -0.0000 -19.0659 9.4403 16.6560 0.0000 0.0000 0.0000 83.5830 -1.6604 28.7845 -17.8243 27.9315 -4.4666 0.0000 0.0000 7.0952 -13.0195 -30.9828 6.7881 7.1250 -0.0000 -0.0000 21.5269 -60.3197 -8.2690
48.0875 16.7396 4.9779 543.0830 0.6664 536.3520 0.0000 0.0000 0.0000 -14.8832 3.5757 1.5082 9.1592 16.9091 56.6390 0.0116 -1.7123 3.3507 0.2922 3.4758 9.6064 0.0000 0.0000 0.0000 24.9277 0.9305 -4.5998 -1.0259 -6.4431 18.0756 -0.7663 3.1111 -15.7780 -0.1112 -2.1499 5.9200 1.1605 0.5769 10.0464 2.0445 1.3001 3.5335 1.3065 0.7998 -1.9840 3.8700 2.4612 -22.0385 -0.4471 1.4394 27.1819 -0.6432 0.6896 12.7801 -0.0000 -0.0000 0.0000 -87.0901 9.4723 10.6364 7.8706 -13.3429 -0.9220 -0.0000 -0.0000 50.1372 -3.5360 -21.5624 1.3010 -7.1250 0.0000 -0.0000 -20.1544 9.3645 17.7740 -0.0000 -0.0000 0.0000 83.2963 -0.9913 29.4417 -18.1711 28.3757 -4.6303 0.0000 0.0000 6.4447 -13.1154 -31.1699 6.8761 7.1250 -0.0000 -0.0000 21.5777 -60.5149 -8.3905
48.1143 16.7672 4.8475 543.0500 0.6917 536.2650 0.0000 0.0000 0.0000 -14.8356 3.3697 -0.1025 9.5147 17.1278 57.8537 0.0013 -1.3361 2.0681 0.2851 3.4339 9.4891 0.0000 0.0000 0.0000 25.0103 0.6675 -3.5225 -0.9427 -6.1840 17.3193 -0.7894 3.1952 -16.0110 -0.1136 -2.1730 5.9840 1.1701 0.6660 10.1352 2.0039 1.4220 3.5460 1.2435 0.8614 -2.0204 4.5018 2.4283 -23.0466 -0.8729 1.2177 27.8556 -0.9541 0.6012 13.2681 -0.0000 -0.0000 0.0000 -86.7484 9.7516 10.3596 7.8273 -13.2725 -0.9121 -0.0000 -0.0000 51.0886 -3.6804 -21.0777 1.3252 -7.1250 0.0000 -0.0000 -20.2761 9.8248 17.6958 -0.0000 -0.0000 0.0000 82.9916 -0.3439 30.1554 -18.5288 28.8290 -4.8015 0.0000 0.0000 5.7917 -13.0907 -31.1388 6.8568 7.1250 -0.0000 -0.0000 21.5785 -60.4805 -8.3731
48.1422 16.7959 4.7162 542.9920 0.7732 536.1910 0.0000 0.0000 0.0000 -14.6845 3.3721 -1.7465 9.7665 17.2764 58.7051 -0.0027 -1.0689 0.9756 0.1681 2.6414 7.2820 0.0000 0.0000 0.0000 24.9758 0.2035 -2.5847 -0.8676 -5.9392 16.6082 -0.7970 3.5672 -16.0407 -0.1246 -2.2755 6.2677 1.0447 0.7710 10.1771 2.0024 1.5507 3.5583 1.2967 0.9254 -2.0354 4.9235 2.3652 -23.6758 -1.1658 1.0041 28.2948 -1.1828 0.5128 13.5815 -0.0000 -0.0000 0.0000 -85.9738 10.0860 15.5000 7.8841 -13.3649 -0.9252 -0.0000 -0.0000 46.4107 -3.7995 -21.2927 1.3815 -7.1250 0.0000 -0.0000 -20.3313 9.6260 17.8385 -0.0000 -0.0000 0.0000 82.5629 0.2510 31.0317 -18.9431 29.3480 -5.0029 0.0000 0.0000 4.9853 -13.1309 -30.9090 6.8331 7.1250 -0.0000 -0.0000 21.3503 -60.2779 -8.1761
48.1747 16.8240 4.5847 542.9870 0.9083 536.1100 0.0000 0.0000 0.0000 -14.5854 3.2816 -3.2079 9.9337 17.3724 59.2665 -0.0022 -0.9828 -0.2019 0.0547 1.5089 4.1504 0.0000 0.0000 0.0000 24.9726 -0.4510 -1.7096 -0.7900 -5.6739 15.8412 -0.7935 4.0397 -15.9527 -0.1151 -2.1872 6.0234 0.8946 0.8803 10.2293 2.0433 1.6843 3.5565 1.4066 0.9916 -2.0732 4.5653 2.3637 -22.8287 -0.9633 1.1183 27.9289 -1.0214 0.5445 13.2518 0.0000 0.0000 0.0000 -85.8174 10.6496 16.4563 7.9893 -13.5355 -0.9496 -0.0000 -0.0000 45.1354 -3.5002 -21.3537 1.2759 -7.1250 0.0000 -0.0000 -20.1480 9.5599 17.6828 0.0000 0.0000 0.0000 82.1894 0.9271 31.6016 -19.2185 29.6893 -5.1386 0.0000 0.0000 4.7943 -12.8592 -30.6001 6.6283 7.1250 -0.0000 -0.0000 21.3904 -59.9289 -8.0131
48.2031 16.8507 4.4534 543.2380 1.1077 536.0260 0.0000 0.0000 0.0000 -14.1806 3.2559 -4.5912 10.0328 17.4282 59.5978 0.0033 -1.2245 -1.2531 0.0189 0.8881 2.4411 0.0000 0.0000 0.0000 25.3492 -0.8888 -0.7165 -0.7123 -5.3939 15.0354 -0.7913 4.3989 -15.8994 -0.1354 -2.3718 6.5345 1.0597 0.9716 10.3018 2.1188 1.8345 3.5911 1.3729 1.0706 -2.0776 4.1616 2.2542 -22.2643 -0.5991 1.0353 27.5506 -0.8247 0.5141 12.9708 0.0000 -0.0000 0.0000 -85.6160 10.8228 16.2161 7.9844 -13.5276 -0.9485 -0.0000 -0.0000 44.7808 -3.0201 -21.2333 1.0947 -7.1250 0.0000 -0.0000 -19.8690 9.6582 17.3612 0.0000 -0.0000 0.0000 81.9506 1.7654 32.0462 -19.4115 29.9268 -5.2346 0.0000 0.0000 4.7108 -12.8604 -30.6031 6.6296 7.1250 -0.0000 -0.0000 21.3914 -59.9320 -8.0151
48.2218 16.8745 4.3229 543.4890 1.3390 535.9230 0.0000 0.0000 0.0000 -13.7603 3.2415 -5.9745 10.0959 17.4634 59.8083 0.0120 -1.7764 -2.1540 0.0438 1.3504 3.7135 0.0000 0.0000 0.0000 25.7295 -1.1940 0.3140 -0.6427 -5.1288 14.2762 -0.7898 4.6837 -15.8661 -0.1605 -2.5814 7.1155 1.4441 1.0731 10.4106 2.0939 2.0202 3.6587 1.1073 1.1696 -2.0573 4.3337 2.2701 -22.5083 -0.7611 1.0255 27.7460 -0.9193 0.5058 13.1035 -0.0000 -0.0000 0.0000 -84.4704 12.1045 19.9873 8.6986 -14.6788 -1.1225 -0.0000 -0.0000 40.3511 -2.5793 -21.1815 0.9325 -7.1250 0.0000 -0.0000 -19.6076 9.6923 17.0869 -0.0000 -0.0000 0.0000 81.7658 2.6123 32.7003 -19.6820 30.2574 -5.3702 0.0000 0.0000 4.1735 -13.2826 -30.8023 6.8928 7.1250 -0.0000 -0.0000 21.1053 -60.2150 -8.0453
48.2395 16.8954 4.1940 543.3980 1.5655 535.8040 0.0000 0.0000 0.0000 -13.8358 3.0979 -7.2725 10.1000 17.4657 59.8221 0.0295 -1.9358 -3.1378 0.0478 1.4112 3.8810 0.0000 0.0000 0.0000 25.6986 -1.4802 1.3172 -0.5813 -4.8819 13.5720 -0.7997 4.6872 -15.9676 -0.0734 -1.7483 4.8107 1.5140 1.2254 10.5488 2.0347 2.2332 3.6710 0.9774 1.2766 -2.1175 4.1710 2.1645 -22.4338 -0.8606 0.9549 27.8541 -0.9456 0.4382 13.1287 -0.0000 0.0000 0.0000 -85.0029 11.4604 14.7872 7.9239 -13.4294 -0.9344 -0.0000 -0.0000 46.2663 1.0788 -23.6523 -0.4328 -7.1250 0.0000 -0.0000 -17.2877 7.1734 15.7469 -0.0000 0.0000 0.0000 81.3427 3.2350 33.3667 -20.0147 30.6601 -5.5389 0.0000 0.0000 3.6356 -13.4189 -30.6464 6.9339 7.1250 -0.0000 -0.0000 20.8384 -60.1025 -7.8820
48.2635 16.9164 4.0641 543.3300 1.8560 535.6710 0.0000 0.0000 0.0000 -13.8840 3.0310 -8.4702 10.0337 17.4287 59.6008 0.0521 -1.8198 -4.0636 0.0029 0.3501 0.9618 0.0000 0.0000 0.0000 25.7017 -1.7856 2.2922 -0.5287 -4.6597 12.9405 -0.8131 4.6306 -16.1080 -0.0038 -0.3983 1.0944 1.5232 1.4329 10.6872 2.0344 2.5135 3.6460 0.9327 1.4151 -2.2208 3.8457 2.0118 -22.1887 -0.8158 0.8332 27.9096 -0.8975 0.3480 13.0935 0.0000 0.0000 0.0000 -84.8899 11.9974 15.0913 8.0662 -13.6601 -0.9677 -0.0000 -0.0000 45.5336 2.4444 -23.9648 -0.9934 -7.1250 0.0000 -0.0000 -16.4614 6.7860 15.0519 0.0000 0.0000 0.0000 80.9445 3.7662 33.6366 -20.3089 31.0127 -5.6896 0.0000 0.0000 3.3869 -13.3779 -30.4274 6.8680 7.1250 -0.0000 -0.0000 20.7109 -59.8896 -7.7254
48.2870 16.9340 3.9340 543.5180 2.1418 535.6390 0.0000 0.0000 0.0000 -13.2120 3.6351 -10.1273 9.8461 17.3224 58.9729 0.0566 -2.0541 -4.2501 0.0485 -1.4206 -3.9069 0.0000 0.0000 0.0000 25.8427 -2.4621 2.9173 -0.4927 -4.5003 12.4887 -0.8078 5.2241 -16.0276 -0.0003 0.1040 -0.2857 1.8914 1.6376 10.7179 2.0035 2.8233 3.6240 0.6547 1.5697 -2.2440 3.7465 1.9054 -22.1414 -0.7673 0.6900 27.9941 -0.8888 0.2775 13.1136 0.0000 0.0000 0.0000 -84.6011 12.2873 15.9298 8.2323 -13.9287 -1.0073 -0.0000 -0.0000 43.4469 2.5312 -23.8917 -1.0257 -7.1250 0.0000 -0.0000 -16.4110 6.8502 14.9803 0.0000 0.0000 0.0000 80.8961 4.5176 33.5112 -20.4446 31.1743 -5.7597 0.0000 0.0000 3.4234 -13.6329 -30.6059 7.0393 7.1250 -0.0000 -0.0000 20.5810 -60.1150 -7.7858
48.3030 16.9458 3.8048 543.8560 2.3818 535.6560 0.0000 0.0000 0.0000 -12.9272 3.2280 -11.2449 9.5712 17.1616 58.0453 0.0823 -1.6784 -5.0940 0.0762 -1.7805 -4.8994 0.0000 0.0000 0.0000 25.8754 -3.7665 3.1414 -0.4714 -4.4033 12.2141 -0.7656 6.6519 -15.6233 -0.0000 -0.0140 0.0384 2.4310 1.7569 10.7115 2.0310 3.0427 3.6088 0.3544 1.6815 -2.2306 3.7107 1.8532 -22.1141 -0.8392 0.6461 28.0477 -0.9196 0.2422 13.1285 0.0000 -0.0000 0.0000 -84.2871 12.5423 17.2098 8.4066 -14.2097 -1.0497 -0.0000 -0.0000 40.6279 3.0418 -23.7857 -1.2278 -7.1250 0.0000 -0.0000 -16.1063 6.9161 14.6560 0.0000 -0.0000 0.0000 80.8021 5.3756 33.5098 -20.5447 31.2931 -5.8117 0.0000 0.0000 3.4003 -14.0966 -30.8130 7.3299 7.1250 -0.0000 -0.0000 20.2523 -60.4171 -7.8018
48.3124 16.9554 3.6774 544.1780 2.6892 535.6040 0.0000 0.0000 0.0000 -12.5666 3.2551 -12.4469 9.4400 17.0827 57.5998 0.1177 -1.8108 -6.1021 0.0387 1.2703 3.4929 0.0000 0.0000 0.0000 26.3670 -3.7299 4.2635 -0.4113 -4.1171 11.4063 -0.7573 6.7843 -15.5481 -0.0011 -0.2160 0.5935 2.9138 1.8293 10.8207 2.0967 3.2037 3.5897 0.1278 1.7645 -2.2867 3.6576 1.8832 -22.0068 -0.9186 0.7287 28.0999 -0.9286 0.2575 13.1297 0.0000 -0.0000 0.0000 -84.0638 13.0140 18.7279 8.7022 -14.6845 -1.1234 -0.0000 -0.0000 37.2865 3.9929 -23.5638 -1.5984 -7.1250 0.0000 -0.0000 -15.5359 7.0596 14.0488 0.0000 -0.0000 0.0000 80.6057 6.1635 33.7025 -20.6866 31.4607 -5.8855 0.0000 0.0000 3.3116 -14.4196 -30.7190 7.4827 7.1250 -0.0000 -0.0000 19.8354 -60.4060 -7.6282
48.3191 16.9632 3.5524 544.2940 3.0535 535.5860 0.0000 0.0000 0.0000 -12.4155 3.3270 -13.6499 9.2310 16.9541 56.8856 0.1493 -1.9464 -6.8812 0.1968 2.8567 7.8800 0.0000 0.0000 0.0000 26.3858 -4.1183 4.9783 -0.3786 -3.9518 10.9410 -0.7059 7.2654 -15.0668 -0.0117 0.6987 -1.9200 3.2717 1.9387 10.9507 2.0398 3.3901 3.5432 -0.1607 1.8550 -2.3792 3.6797 1.9298 -21.9495 -1.0088 0.8039 28.2070 -0.9566 0.2753 13.1648 0.0000 -0.0000 0.0000 -83.8588 13.4458 19.4948 8.9553 -15.0892 -1.1885 -0.0000 -0.0000 34.7060 5.2273 -23.3393 -2.0758 -7.1250 0.0000 -0.0000 -14.7887 7.1798 13.2863 0.0000 -0.0000 0.0000 80.5386 6.9627 33.7793 -20.7564 31.5429 -5.9220 0.0000 0.0000 3.3782 -14.6204 -30.6054 7.5652 7.1250 -0.0000 -0.0000 19.5336 -60.3471 -7.4793
